<svg width="300" height="300" viewBox="0 0 300 300" fill="none" xmlns="http://www.w3.org/2000/svg">
<circle cx="150" cy="150" r="150" fill="#E89960"/>
<path d="M229.599 183V75.5C229.399 66.5 222.299 59.3 213.299 59.3H101.099C76.8994 59.7 57.3994 79.5001 57.3994 103.8C57.3994 112 59.5994 119 62.9994 125.2C65.7994 130.3 70.2994 135.1 74.6994 138.8C75.8994 139.8 75.2994 139.4 79.0994 141.8C84.3994 145 90.3994 146.6 90.3994 146.6V210.9C90.4994 213.9 90.8994 216.9 91.5994 219.6C94.0994 228.6 100.399 235.6 108.899 239C112.499 240.4 116.499 241.4 120.799 241.4L210.399 241.7C228.299 241.7 242.799 227.2 242.799 209.3C242.799 198.4 237.599 188.9 229.599 183Z" fill="#FFEEDA"/>
<path d="M231.7 209.8C231.3 221.3 221.9 230.5 210.4 230.5L148.7 230.3C153.6 224.6 156.6 217.2 156.6 209.2C156.6 196.5 149 187.8 149 187.8H210.4C222.2 187.8 231.7 197.4 231.7 209.2V209.8Z" fill="#EBC28E"/>
<path d="M80.3998 129.5C73.2998 122.8 68.2998 114.1 68.2998 103.7V102.6C68.8998 84.9999 83.3998 70.7999 101 70.1999H213.2C216.1 70.2999 218.5 72.4 218.5 75.4V170.3C221.1 170.8 222.3 171.1 224.8 172C226.7 172.7 229.5 174.3 229.5 174.3V75.4C229.3 66.4 222.2 59.2 213.2 59.2H101C76.7998 59.6 57.2998 79.3999 57.2998 103.7C57.2998 117.8 63.6998 129.9 74.2998 138.4C74.9998 139 75.6998 139.7 77.5998 139.7C80.8998 139.7 83.1998 137.1 83.0998 134.2C82.9998 131.8 81.9998 130.9 80.3998 129.5Z" fill="#190602"/>
<path d="M210.4 176.7H122.4C116.5 176.7 111.7 181.6 111.7 187.5V200.1C111.9 205.9 116.9 211 122.7 211H129.2V200.1H122.7V187.7C122.7 187.7 124.3 187.7 126.3 187.7C137.4 187.7 145.6 198 145.6 209.1C145.6 218.9 136.7 231.4 121.8 230.4C108.5 229.5 101.4 217.7 101.4 209.1V101.8C101.4 97 97.4998 93 92.5998 93H83.7998V104H90.2998V209.1C89.9998 230.5 105.5 241.3 121.7 241.3L210.4 241.6C228.3 241.6 242.8 227.1 242.8 209.2C242.8 191.3 228.3 176.7 210.4 176.7ZM231.7 209.8C231.3 221.3 221.9 230.5 210.4 230.5L148.7 230.3C153.6 224.6 156.6 217.2 156.6 209.2C156.6 196.5 149 187.8 149 187.8H210.4C222.2 187.8 231.7 197.4 231.7 209.2V209.8Z" fill="#190602"/>
<path d="M187.399 105.9H120.399V95H187.399C190.099 95 192.199 97.2 192.199 99.8V101.1C192.199 103.8 189.999 105.9 187.399 105.9Z" fill="#190602"/>
<path d="M187.399 157.6H120.399V146.7H187.399C190.099 146.7 192.199 148.9 192.199 151.5V152.8C192.199 155.4 189.999 157.6 187.399 157.6Z" fill="#190602"/>
<path d="M199 131.8H120.3V120.9H199C201.7 120.9 203.8 123.1 203.8 125.7V127C203.9 129.6 201.7 131.8 199 131.8Z" fill="#190602"/>
</svg>
