<svg width="16" height="15" viewBox="0 0 16 15" fill="none" xmlns="http://www.w3.org/2000/svg">
<path fill-rule="evenodd" clip-rule="evenodd" d="M7.08119 2.98617C5.76629 1.67127 3.63441 1.67127 2.31951 2.98617C1.00461 4.30107 1.00461 6.43295 2.31951 7.74785L8.00005 13.4284L13.6805 7.7479C14.9954 6.433 14.9954 4.30113 13.6805 2.98622C12.3656 1.67132 10.2338 1.67132 8.91885 2.98623L8.70715 3.19793C8.31663 3.58845 7.68346 3.58845 7.29294 3.19793L7.08119 2.98617ZM7.99962 14.9945C7.9858 14.9954 7.97192 14.9958 7.958 14.9958C7.78119 14.9958 7.61162 14.9256 7.48659 14.8006L1.3767 8.69066C-0.458899 6.85506 -0.458901 3.87897 1.3767 2.04336C3.20434 0.215726 6.1626 0.207798 8.00005 2.01958C9.8375 0.207852 12.7957 0.215794 14.6233 2.04342C16.4589 3.87902 16.4589 6.85511 14.6233 8.69071L8.51345 14.8006C8.38843 14.9256 8.21886 14.9959 8.04205 14.9959C8.02785 14.9959 8.0137 14.9954 7.99962 14.9945Z" fill="#F3F4F4"/>
</svg>
