<?xml version="1.0" standalone="no"?>
<!DOCTYPE svg PUBLIC "-//W3C//DTD SVG 1.1//EN" "http://www.w3.org/Graphics/SVG/1.1/DTD/svg11.dtd"><svg xmlns="http://www.w3.org/2000/svg" style="background-color:#FFF" width="420" height="120"><path stroke="black" fill="none" stroke-width="1" d="M133, 121L0, 121"/><path stroke="black" fill="none" stroke-width="1" d="M129.7, 51.2L115.2, 51.2L102.8, 29.5L85.4, 60L103, 90.4L115.4, 68.4L129.8, 68.4L106.5, 108.2L106.4, 108.5L99.2, 108.6L71.1, 60.1L98.8, 11.4L105.9, 11.4L106.6, 12.5L126.1, 45.3L129.7, 51.2"/><path stroke="black" fill="none" stroke-width="1" d="M21.3, 43.3L56.5, 43.3L74.2, 13L48.5, 13.1L45.2, 6.8L41.8, 0.6L48.1, 0.7L48.7, 0.7L87.9, 0.6L91.8, 7.3L63.6, 55.7L7.5, 55.7L4, 49.5L4.6, 48.4L26.9, 9.2L30, 14.1L34.3, 21.2L21.3, 43.3"/><path stroke="black" fill="none" stroke-width="1" d="M49, 17.7L50.42, 17.82L51.7, 18.18L52.82, 18.8L53.8, 19.7L54, 20.2L54.1, 20.6L54.1, 22.5L54, 22.8L53.9, 23.2L53.8, 23.4L53.7, 23.6L53.6, 23.7L53.3, 24.3L52.9, 25L52.8, 25.2L52.5, 25.6L52.4, 25.8L52.1, 26.2L51.9, 26.4L51.5, 26.8L51.2, 27.1L50.8, 27.5L50.6, 27.7L50.1, 28.1L49.9, 28.2L49.2, 28.7L48.4, 29.2L47.7, 29.6L46.9, 30L46.8, 30L44.64, 30.77L42.58, 31.12L40.7, 31.07L39.1, 30.6L38.6, 30.3L38.4, 30.2L38.1, 30L37.7, 29.6L37.05, 28.26L37, 26.7L37.61, 24.8L38.78, 22.94L40.43, 21.2L42.5, 19.7L44.16, 18.84L45.9, 18.2L47.49, 17.84L49, 17.7"/><path stroke="black" fill="none" stroke-width="1" d="M55.5, 24.2L55.56, 23.92L55.7, 23.5L55.7, 23.4L55.8, 23.1L60.7, 31.1L55.3, 40.7L44.8, 40.8L39.9, 32.8L40.2, 32.9L40.7, 33L41, 33L41.6, 33.1L42.8, 33.1L43.7, 33L44.3, 33L44.6, 32.9L45, 32.8L45.3, 32.7L45.8, 32.6L45.9, 32.6L46.1, 32.5L46.6, 32.3L46.8, 32.2L46.9, 32.2L47.1, 32.1L47.6, 31.9L47.8, 31.8L47.9, 31.8L48.4, 31.6L48.7, 31.5L48.8, 31.5L49.6, 31L50.4, 30.5L51.84, 29.4L53.11, 28.19L54.18, 26.89L55, 25.5L55.3, 24.8L55.4, 24.6L55.5, 24.2"/><path stroke="black" fill="none" stroke-width="1" d="M111.3, 53.2L111.98, 54.54L112.5, 56.1L112.86, 57.91L113, 59.8L112.78, 62.35L112.16, 64.67L111.19, 66.66L109.9, 68.2L108.5, 68.99L107.79, 69.14L107.1, 69.1L106.5, 69L106.2, 68.9L106, 68.8L105.5, 68.5L104.25, 67.35L103.22, 65.76L102.46, 63.82L102, 61.6L102, 61.5L101.9, 60.6L101.9, 58.9L102, 58.1L102, 57.9L102.1, 57.3L102.1, 57.1L102.2, 56.6L102.3, 56.2L102.5, 55.7L102.6, 55.5L102.8, 55L102.9, 54.8L103.1, 54.3L103.1, 54.2L103.2, 54L103.6, 53.3L104, 52.7L104.1, 52.6L104.2, 52.4L104.3, 52.3L104.6, 52L104.8, 51.8L105, 51.7L105.3, 51.5L105.4, 51.4L105.8, 51.2L105.9, 51.1L106.1, 51L106.3, 51L106.7, 50.9L107.2, 50.9L108.42, 50.81L109.51, 51.23L110.48, 52.05L111.3, 53.2"/><path stroke="black" fill="none" stroke-width="1" d="M102.4, 51L102.1, 51.4L102, 51.5L101.6, 52.1L100.85, 53.54L100.28, 55.13L99.88, 56.82L99.7, 58.6L99.7, 61.7L99.8, 62.3L99.8, 62.6L99.9, 62.9L100, 63.4L100.1, 63.6L100.1, 63.7L100.2, 64.2L100.3, 64.5L100.4, 64.9L100.5, 65.2L100.5, 65.3L100.6, 65.6L100.7, 65.8L101.1, 66.6L101.2, 66.7L101.6, 67.3L101.7, 67.5L101.7, 67.6L102, 68L102.2, 68.2L102.6, 68.6L102.8, 68.8L93.5, 68.8L88.1, 59.8L93.5, 50.2L102.8, 50.2L102.6, 50.4L102.5, 50.5L102.52, 50.83L102.4, 51"/><path stroke="black" fill="none" stroke-width="1" d="M49, 102.3L47.49, 102.16L45.9, 101.8L44.16, 101.16L42.5, 100.3L40.43, 98.8L38.78, 97.06L37.61, 95.2L37, 93.3L37.05, 91.74L37.7, 90.4L38.1, 90L38.4, 89.8L38.6, 89.7L39.1, 89.4L40.7, 88.93L42.58, 88.87L44.64, 89.23L46.8, 90L46.9, 90L47.7, 90.4L48.4, 90.8L49.2, 91.3L49.9, 91.8L50.1, 91.9L50.6, 92.3L50.8, 92.5L51.2, 92.9L51.5, 93.2L51.9, 93.6L52.1, 93.8L52.4, 94.2L52.5, 94.4L52.8, 94.8L52.9, 95L53.3, 95.7L53.6, 96.3L53.7, 96.4L53.8, 96.6L53.9, 96.8L54, 97.2L54.1, 97.5L54.1, 99.4L54, 99.8L53.8, 100.3L52.82, 101.16L51.7, 101.79L50.42, 102.17L49, 102.3"/><path stroke="black" fill="none" stroke-width="1" d="M55.5, 95.7L55.4, 95.3L55.3, 95.1L55, 94.4L54.18, 93.01L53.11, 91.71L51.84, 90.5L50.4, 89.4L49.6, 88.9L48.8, 88.4L48.7, 88.4L48.4, 88.2L47.9, 88L47.8, 88L47.6, 87.9L47.1, 87.7L46.9, 87.6L46.8, 87.6L46.6, 87.5L46.1, 87.3L45.9, 87.2L45.8, 87.2L45.3, 87.1L45, 87L44.6, 86.9L44.3, 86.8L43.7, 86.8L42.8, 86.7L41.6, 86.7L41, 86.8L40.7, 86.8L40.2, 86.9L39.9, 87L44.8, 79L55.3, 79.1L60.7, 88.7L55.8, 96.7L55.7, 96.4L55.7, 96.3L55.5, 95.7"/><path stroke="black" fill="none" stroke-width="1" d="M74.2, 107L56.4, 76.6L21.3, 76.6L34.3, 98.8L26.9, 110.8L4.6, 71.5L4.7, 71.5L4, 70.4L7.5, 64.2L63.6, 64.2L91.8, 112.6L87.9, 119.4L48.7, 119.3L41.8, 119.4L44.6, 114.3L48.5, 106.9L74.2, 107"/></svg>