<svg xmlns="http://www.w3.org/2000/svg" viewBox="0 0 1251.39 438.56"><defs><style>.cls-1{fill:#fff;}.cls-2{fill:none;stroke:#fff;stroke-linejoin:round;stroke-width:15.46px;}</style></defs><g id="Layer_1" data-name="Layer 1"><g id="Word"><path class="cls-1" d="M683.48,856.81Q670,842.25,670,815V644.14h35.21V817.6c0,7.68,1.54,13.24,4.64,16.64s7.52,5.12,13.28,5.12,10.18-1.7,13.28-5.12,4.64-9,4.64-16.64V644.14H775V815q0,27.21-13.45,41.77t-39,14.56Q696.91,871.37,683.48,856.81Z" transform="translate(-106.72 -532.48)"/><path class="cls-1" d="M800,644.14h44.16l34.25,134.09H879V644.14h31.36v224H874.21L832,704.63h-.64V868.17H800Z" transform="translate(-106.72 -532.48)"/><path class="cls-1" d="M936.62,644.14h35.2v224h-35.2Z" transform="translate(-106.72 -532.48)"/><path class="cls-1" d="M998.06,644.14h53.77q26.22,0,39.37,14.08t13.12,41.28V812.8q0,27.21-13.12,41.28t-39.37,14.09H998.06v-224Zm53.13,192q8.64,0,13.28-5.12c3.08-3.42,4.64-9,4.64-16.64V697.9c0-7.68-1.56-13.22-4.64-16.64s-7.52-5.12-13.28-5.12h-17.92v160Z" transform="translate(-106.72 -532.48)"/><path class="cls-1" d="M1128,644.14h96v32h-60.8v59.21h48.32v32h-48.32v68.81H1224v32h-96Z" transform="translate(-106.72 -532.48)"/><path class="cls-1" d="M1275.86,753.59l-38.72-109.45h37.12l23.68,72.33h.64l24.33-72.33h33.28l-38.72,109.45,40.64,114.58H1321l-25.61-78.09h-.64l-26.24,78.09h-33.29Z" transform="translate(-106.72 -532.48)"/></g></g><g id="Layer_3" data-name="Layer 3"><polygon class="cls-2" points="170.58 78.25 252.01 219.28 170.58 360.31 89.16 219.28 170.58 78.25"/><polygon class="cls-2" points="89.16 78.25 170.58 219.28 89.15 360.31 7.73 219.28 89.16 78.25"/><polygon class="cls-2" points="211.29 430.83 374.14 430.83 455.56 289.8 292.72 289.8 211.29 430.83"/><polygon class="cls-2" points="170.58 360.31 333.43 360.31 414.85 219.28 252 219.28 170.58 360.31"/><polygon class="cls-2" points="211.29 7.73 374.14 7.73 455.56 148.76 292.72 148.76 211.29 7.73"/><polygon class="cls-2" points="170.58 78.25 333.43 78.25 414.85 219.28 252 219.28 170.58 78.25"/></g></svg>