<svg width="64" height="64" viewBox="0 0 64 64" fill="none" xmlns="http://www.w3.org/2000/svg">
<g clip-path="url(#clip0_3330_6195)">
<path d="M32 64C49.6731 64 64 49.6731 64 32C64 14.3269 49.6731 0 32 0C14.3269 0 0 14.3269 0 32C0 49.6731 14.3269 64 32 64Z" fill="#101233"/>
<path fill-rule="evenodd" clip-rule="evenodd" d="M22.9634 55.0912C22.9634 55.0912 25.86 53.0995 32.0194 53.0995C38.1787 53.0995 41.0767 55.0912 41.0767 55.0912C41.0767 55.0912 40.2319 56.1612 39.2168 56.4812C38.2018 56.8012 36.8501 56.5004 35.1592 57.7024C33.4683 58.9043 32.0194 58.7737 32.0194 58.7737C32.0194 58.7737 30.5704 58.9017 28.8808 57.7024C27.1912 56.503 25.837 56.8 24.8219 56.4812C23.8069 56.1625 22.9634 55.0912 22.9634 55.0912Z" fill="#03F5AE"/>
<path fill-rule="evenodd" clip-rule="evenodd" d="M29.8729 11.8694C28.1218 11.7734 25.6386 11.9833 24.1538 11.456C21.6182 10.56 21.2098 9.65245 19.0633 10.103C17.4966 10.432 17.1241 11.6595 16.9692 12.9075C20.7682 12.2253 22.9442 13.1072 22.9442 13.1072C17.485 13.6896 15.6354 15.1667 15.5202 15.2589C15.3761 15.3881 15.256 15.542 15.1657 15.7133C14.989 16.0883 15.126 16.2253 15.158 16.9651C22.7433 14.6611 28.8028 16.2611 28.8028 16.2611C23.2732 16.3891 18.1033 17.3504 13.1561 19.7529L13.8831 22.2989C18.4322 20.6592 20.9922 21.8265 20.9922 21.8265C18.274 22.4817 15.6539 23.4922 13.1996 24.832L13.6668 26.0121C12.6121 26.8224 11.7468 29.8457 11.7468 29.8457C11.4908 28.2112 12.5148 25.9571 12.5148 25.9571C10.3734 26.0851 9.5708 28.1177 9.5708 29.8086C9.5708 31.4995 10.655 33.408 11.9695 34.6496C13.2841 35.8912 13.5849 37.2608 13.5849 37.2608C14.582 34.5357 12.6454 34.3168 13.1727 31.0796C13.7001 27.8425 17.5862 26.1209 17.5862 26.1209C16.7882 25.9452 15.9783 25.8293 15.1631 25.774C16.8361 25.518 18.0073 22.8377 28.3714 29.5705C38.7356 36.3033 45.1535 29.4924 48.5954 27.4316C49.6194 28.2675 50.6895 29.4924 50.9481 31.0796C51.4742 34.3116 49.5401 34.5357 50.5346 37.2608C50.5346 37.2608 50.8354 35.8899 52.15 34.6496C53.4646 33.4093 54.5551 31.4931 54.5551 29.8035C54.5551 28.1139 53.7474 26.0838 51.6047 25.952C51.6047 25.952 52.639 28.206 52.3727 29.8406C52.3727 29.8406 51.4767 26.7046 50.3913 25.9648L50.9609 24.5286L50.4322 24.1523C43.053 19.6787 32.0194 19.84 32.0194 19.84C42.7074 18.9005 50.2543 22.3462 50.2543 22.3462L50.8828 19.7619L48.9474 18.816C48.9474 18.816 49.0319 16.9715 48.7119 16.2944C48.5238 15.895 47.9746 15.5021 47.5599 15.2473C43.5394 13.4822 36.6223 13.1072 36.6223 13.1072C42.7804 12.5376 45.8383 12.9177 47.071 13.1725C46.8572 11.8745 46.303 9.95965 44.9116 9.66653C44.0002 9.47453 43.4012 9.52701 42.8188 9.72157C42.5628 9.42845 41.7705 8.57597 40.8476 8.28541C39.7263 7.93213 38.2313 8.26365 36.3676 6.93501C34.5039 5.60637 32.8962 5.75229 32.8962 5.75229C32.8962 5.75229 31.295 5.60765 29.4262 6.93629C27.5574 8.26493 26.0623 7.93341 24.9462 8.28669C23.83 8.63997 22.8905 9.82269 22.8905 9.82269C22.8905 9.82269 25.142 11.3689 29.8818 11.8707L29.8729 11.8694Z" fill="#03F5AE"/>
<path fill-rule="evenodd" clip-rule="evenodd" d="M32.0192 52.0679C32.0192 52.0679 26.7584 52.0871 24.2215 52.9882C21.6845 53.8893 21.2775 54.7917 19.1309 54.3411C17.5629 54.0109 17.2301 52.6259 17.0752 51.3767C20.8743 52.0602 22.944 50.9018 22.944 50.9018C17.4848 50.3181 15.6352 48.841 15.52 48.7501C15.3759 48.6208 15.2558 48.467 15.1655 48.2957C14.9888 47.9194 15.0477 47.6685 15.0797 46.9299C22.6663 49.2314 28.8 47.744 28.8 47.744C23.2704 47.616 18.1005 46.6547 13.1533 44.2522L13.9072 41.4247C18.6432 42.6125 20.9856 42.1824 20.9856 42.1824C18.2683 41.5287 15.649 40.5195 13.1956 39.1808L13.792 37.6768C21.4554 40.8026 42.5767 40.8026 50.24 37.6768L50.9543 39.4803L50.432 39.8554C43.0528 44.3354 32.0192 44.1741 32.0192 44.1741C42.7072 45.1136 50.2541 41.6679 50.2541 41.6679L50.8826 44.2522L48.9472 45.1917C48.9472 45.1917 49.1917 47.6147 48.8717 48.2919C48.6836 48.6899 48.1344 49.0829 47.7197 49.3376C43.6992 51.104 36.6221 50.9005 36.6221 50.9005C42.7802 51.4701 45.7908 51.5341 47.0183 51.2845C46.8045 52.5824 46.3066 54.0519 44.9114 54.3463C42.7687 54.7968 42.3514 53.8957 39.8196 52.9933C37.2877 52.0909 32.0218 52.073 32.0218 52.073L32.0192 52.0679Z" fill="#03F5AE"/>
<path fill-rule="evenodd" clip-rule="evenodd" d="M20.576 31.415C20.576 31.415 19.5968 33.769 21.5155 34.7085C23.4342 35.648 28.2534 35.1731 28.2534 35.1731C28.2534 35.1731 24.0755 32.0934 20.5734 31.415H20.576Z" fill="white"/>
<path fill-rule="evenodd" clip-rule="evenodd" d="M44.4583 33.8317C44.4583 33.8317 44.8334 35.785 43.218 36.1984C41.6026 36.6118 37.9956 35.4854 37.9956 35.4854C37.9956 35.4854 41.6769 33.792 44.4583 33.8317Z" fill="white"/>
<path d="M51.319 19.8707C51.319 19.8707 54.9721 20.1101 57.1967 21.3568C59.1257 22.4358 61.0034 24.9216 61.0034 24.9216C61.0034 24.9216 58.2476 25.7894 57.39 26.7981C56.6028 27.7274 56.4402 28.1485 56.4402 28.1485C56.4402 28.1485 54.4025 24.023 50.7314 22.5075L51.319 19.8707Z" fill="#03F5AE"/>
<path d="M45.2671 53.9712C45.2671 53.9712 47.077 55.5571 48.6911 56.0192C50.0901 56.4134 52.1189 56.1318 52.1189 56.1318C52.1189 56.1318 51.2409 54.4474 51.3113 53.5795C51.3765 52.7808 51.4969 52.5094 51.4969 52.5094C49.9569 52.2969 48.451 51.8855 47.0169 51.2858L45.2671 53.9712Z" fill="#03F5AE"/>
<path d="M13.1571 37.3402C13.1571 37.3402 10.4038 39.7542 7.94879 40.448C5.82143 41.047 2.73535 40.6182 2.73535 40.6182C2.73535 40.6182 4.07167 38.0544 3.96799 36.736C3.86815 35.5226 3.68511 35.1091 3.68511 35.1091C3.68511 35.1091 8.04351 36.5862 11.7107 35.0618L13.1571 37.3402Z" fill="#03F5AE"/>
<path d="M22.6561 9.58718C22.6561 9.58718 20.6158 8.09214 19.7813 6.5395C19.0581 5.1955 18.8853 3.04894 18.8853 3.04894C18.8853 3.04894 20.8142 3.56094 21.6885 3.29598C22.4923 3.04638 22.7432 2.86206 22.7432 2.86206C22.7432 2.86206 22.4001 6.02238 23.9745 8.2675L22.6561 9.58718Z" fill="#03F5AE"/>
</g>
<defs>
<clipPath id="clip0_3330_6195">
<rect width="64" height="64" fill="white"/>
</clipPath>
</defs>
</svg>
