<svg id="Layer_3" data-name="Layer 3" xmlns="http://www.w3.org/2000/svg" viewBox="0 0 939.22 889.08"><defs><style>.cls-1{fill:none;stroke:#fff;stroke-linejoin:round;stroke-width:31.34px;}</style></defs><polygon class="cls-1" points="345.82 158.63 510.89 444.54 345.81 730.45 180.74 444.54 345.82 158.63"/><polygon class="cls-1" points="180.75 158.63 345.81 444.54 180.74 730.45 15.67 444.54 180.75 158.63"/><polygon class="cls-1" points="428.35 873.41 758.49 873.41 923.55 587.5 593.42 587.5 428.35 873.41"/><polygon class="cls-1" points="345.81 730.46 675.95 730.46 841.02 444.54 510.88 444.54 345.81 730.46"/><polygon class="cls-1" points="428.35 15.67 758.49 15.67 923.55 301.58 593.42 301.58 428.35 15.67"/><polygon class="cls-1" points="345.81 158.63 675.95 158.63 841.02 444.54 510.88 444.54 345.81 158.63"/></svg>